<svg version="1.2" xmlns="http://www.w3.org/2000/svg" viewBox="3350 95 320 395">
	<style>
		tspan { white-space:pre } 
		 
		.s1 { fill: #2accd9 } 
		.s2 { fill: #7ce2e7 } 
		.s3 { fill: #1e9ba1 } 
	</style>
	<g id="Camada 2">
		<g id="&lt;Group&gt;">
			<g id="&lt;Group&gt;">
				<g id="&lt;Group&gt;">
					<path id="&lt;Path&gt;" class="s1" d="m3537.22 320.03c-45.7 16.63-96.23-6.94-112.86-52.63l6.75-2.46c3.33 9.14 8.12 17.3 14.02 24.34 21.24 25.3 56.79 35.95 89.63 23.99 41.96-15.27 63.61-61.68 48.33-103.64-3.17-8.72-7.7-16.57-13.24-23.38q-0.97-1.2-1.99-2.37-0.52-0.58-1.03-1.15-1.05-1.14-2.12-2.23c-8.64-8.76-19.14-15.38-30.6-19.44q-0.72-0.26-1.44-0.49c-8.17-2.74-16.8-4.18-25.57-4.18v-7.19c35.97 0 69.73 22.21 82.75 57.97 16.63 45.69-6.94 96.23-52.63 112.86z"/>
				</g>
				<g id="&lt;Group&gt;">
					<path id="&lt;Path&gt;" class="s2" d="m3534.76 313.27c-32.84 11.96-68.39 1.31-89.63-23.99l5.51-4.63c5.58 6.65 12.24 12.19 19.62 16.44 18.2 10.5 40.75 13.18 62.04 5.43 38.24-13.92 57.96-56.2 44.04-94.44-10.9-29.92-39.14-48.49-69.24-48.49v-7.19c8.77 0 17.4 1.43 25.57 4.17q0.72 0.24 1.44 0.49c11.46 4.06 21.96 10.68 30.6 19.44q1.07 1.09 2.12 2.23 0.51 0.57 1.03 1.15 1.02 1.17 1.99 2.37c5.54 6.81 10.07 14.66 13.24 23.38 15.28 41.96-6.37 88.37-48.33 103.64z"/>
				</g>
				<g id="&lt;Group&gt;">
					<path id="&lt;Path&gt;" class="s3" d="m3532.3 306.52c-21.29 7.75-43.84 5.07-62.04-5.43l3.6-6.22c16.43 9.47 36.76 11.88 55.98 4.89 34.5-12.55 52.3-50.71 39.74-85.22-9.82-27-35.32-43.76-62.48-43.76v-7.19c30.1 0 58.34 18.57 69.24 48.49 13.92 38.24-5.8 80.52-44.04 94.44z"/>
				</g>
				<g id="&lt;Group&gt;">
					<g id="&lt;Group&gt;">
						<path id="&lt;Compound Path&gt;" class="s1" d="m3514.04 291.66c-1.87-4-5.21-7.37-11.12-7.14-14.18 0.57-19.19 3.14-22.59-2.17-2.67-4.14-3.2-5.54-3.2-5.54 0.16 2.04-1.14 4.71 1.43 8.68 3.37 5.34 4.74 1.13 18.92 0.57 9.05-0.37 12.05 7.71 13.02 13.58q1.89-3.91 3.54-7.98zm-40.55-32.53c-3.47-1.54-6.28-1.14-2.04-7.05 2.84-3.9 10.72-15.88 9.75-20.89-0.94-5-12.75-33.74 16.75-50.19 3.14-1.77 6.54-3.27 10.08-4.47l-0.03-0.07c-5.51 1.4-10.75 3.44-15.49 6.11-29.5 16.45-17.69 45.18-16.75 50.19 0.97 5.01-7.28 16.72-9.71 20.89-2.47 4.14 7.44 5.48 7.44 5.48z"/>
					</g>
				</g>
				<g id="&lt;Group&gt;">
					<g id="&lt;Group&gt;">
						<path id="&lt;Compound Path&gt;" class="s2" d="m3529.79 285.39c-0.26-4.07-1.8-13.08-10.04-12.75-10.65 0.44-11.65 3.57-14.22-0.43-1.9-2.97-0.93-4.98-1.03-6.51 0 0 0.4 1.07 2.37 4.14 2.56 4 6.3 2.07 16.95 1.63 5.37-0.2 7.88 3.51 9.08 7.28-0.97 2.23-1.97 4.47-3.11 6.64zm-28.06-32.94c0 0-7.41-1-5.58-4.14 1.84-3.1 8.01-11.91 7.31-15.65-0.7-3.77-9.58-25.33 12.55-37.64 3.74-2.11 7.88-3.67 12.25-4.74-2.87 0.97-5.64 2.13-8.18 3.57-22.13 12.31-13.25 33.87-12.55 37.64 0.7 3.74-5.17 12.72-7.31 15.65-3.17 4.44-1.06 4.14 1.51 5.31z"/>
					</g>
				</g>
				<g id="&lt;Group&gt;">
					<g id="&lt;Group&gt;">
						<path id="&lt;Compound Path&gt;" class="s3" d="m3549 271.15c-0.22-2.93-1.3-9.38-7.22-9.13-7.62 0.31-8.33 2.56-10.15-0.31-1.39-2.13-0.68-3.58-0.77-4.66 0 0 0.28 0.74 1.69 2.96 1.86 2.87 4.54 1.48 12.16 1.18 3.82-0.16 5.64 2.49 6.48 5.18-0.68 1.63-1.42 3.21-2.19 4.78zm-20.12-23.6c0 0-5.3-0.71-3.98-2.93 1.33-2.25 5.74-8.54 5.22-11.23-0.5-2.68-6.85-18.11 8.97-26.96 2.69-1.48 5.65-2.59 8.77-3.36-2.04 0.68-4.01 1.54-5.84 2.53-15.82 8.85-9.5 24.27-8.97 26.96 0.49 2.68-3.73 9.1-5.25 11.23-2.25 3.18-0.77 2.93 1.08 3.76z"/>
					</g>
				</g>
			</g>
			<g id="&lt;Group&gt;">
				<g id="&lt;Group&gt;">
					<g id="&lt;Group&gt;">
						<path id="&lt;Compound Path&gt;" class="s3" d="m3376.6 364.06q-2.31-5.32-7.04-8.36-4.74-3.04-11.13-3.04-6.01 0-10.78 2.77-4.78 2.77-7.55 7.9-2.77 5.12-2.77 11.89 0 6.78 2.77 11.94 2.77 5.16 7.55 7.93 4.77 2.78 10.78 2.78 5.62 0 10.13-2.43 4.5-2.43 7.24-6.93 2.73-4.51 3.11-10.51h-22.64v-4.39h28.34v3.92q-0.38 7.09-3.85 12.83-3.46 5.74-9.28 9.05-5.81 3.31-13.05 3.31-7.47 0-13.56-3.51-6.08-3.5-9.58-9.78-3.51-6.27-3.51-14.21 0-7.93 3.51-14.2 3.5-6.28 9.58-9.79 6.09-3.5 13.56-3.5 8.62 0 15.09 4.31 6.47 4.32 9.4 12.02z"/>
						<path id="&lt;Compound Path&gt;" fill-rule="evenodd" class="s3" d="m3397.77 400.14q-4.74-2.66-7.47-7.55-2.73-4.89-2.73-11.44 0-6.54 2.77-11.43 2.77-4.89 7.55-7.55 4.77-2.66 10.7-2.66 5.93 0 10.75 2.66 4.81 2.66 7.54 7.55 2.74 4.89 2.74 11.43 0 6.47-2.78 11.4-2.77 4.93-7.62 7.59-4.85 2.65-10.78 2.65-5.93 0-10.67-2.65zm18.37-3.93q3.54-1.89 5.74-5.7 2.19-3.81 2.19-9.36 0-5.54-2.15-9.35-2.16-3.81-5.7-5.7-3.55-1.89-7.7-1.89-4.16 0-7.71 1.89-3.54 1.89-5.66 5.7-2.12 3.81-2.11 9.35-0.01 5.55 2.11 9.36 2.12 3.81 5.63 5.7 3.5 1.89 7.66 1.89 4.16 0 7.7-1.89z"/>
						<path id="&lt;Compound Path&gt;" fill-rule="evenodd" class="s3" d="m3442.78 400.14q-4.74-2.66-7.48-7.55-2.73-4.89-2.73-11.44 0-6.54 2.77-11.43 2.78-4.89 7.55-7.55 4.77-2.66 10.71-2.66 5.92 0 10.74 2.66 4.81 2.66 7.55 7.55 2.73 4.89 2.73 11.43 0 6.47-2.77 11.4-2.77 4.93-7.63 7.59-4.85 2.65-10.78 2.65-5.93 0-10.66-2.65zm18.36-3.93q3.54-1.89 5.74-5.7 2.19-3.81 2.19-9.36 0-5.54-2.15-9.35-2.16-3.81-5.7-5.7-3.54-1.89-7.7-1.89-4.16 0-7.7 1.89-3.55 1.89-5.66 5.7-2.12 3.81-2.12 9.35 0 5.55 2.12 9.36 2.11 3.81 5.62 5.7 3.5 1.89 7.66 1.89 4.16 0 7.7-1.89z"/>
						<path id="&lt;Compound Path&gt;" fill-rule="evenodd" class="s3" d="m3480.19 369.72q2.62-4.89 7.2-7.55 4.59-2.66 10.36-2.66 5.55 0 10.01 2.7 4.47 2.7 6.55 7.01v-24.03h5.39v56.99h-5.39v-9.4q-1.93 4.39-6.32 7.2-4.39 2.82-10.32 2.81-5.77 0.01-10.35-2.69-4.59-2.7-7.17-7.62-2.58-4.93-2.58-11.4 0-6.47 2.62-11.36zm32.04 2.5q-2.08-3.85-5.66-5.93-3.58-2.08-7.89-2.08-4.47 0-8.01 2-3.55 2.01-5.59 5.82-2.04 3.81-2.04 9.05 0 5.16 2.04 9.05 2.04 3.89 5.59 5.93 3.54 2.04 8.01 2.04 4.31 0 7.89-2.08 3.58-2.08 5.66-5.93 2.08-3.85 2.08-8.94 0-5.08-2.08-8.93z"/>
						<path id="&lt;Compound Path&gt;" class="s3" d="m3593.46 348.35l-15.24 53.83h-6.01l-13.56-45.9-13.86 45.9-5.85 0.08-14.94-53.91h5.77l12.33 47.21 13.78-47.21h6.01l13.4 47.21 12.4-47.21z"/>
						<path id="&lt;Compound Path&gt;" fill-rule="evenodd" class="s3" d="m3598.69 400.14q-4.74-2.66-7.47-7.55-2.73-4.89-2.73-11.44 0-6.54 2.77-11.43 2.77-4.89 7.55-7.55 4.77-2.66 10.7-2.66 5.93 0 10.74 2.66 4.82 2.66 7.55 7.55 2.73 4.89 2.74 11.43 0 6.47-2.78 11.4-2.77 4.93-7.62 7.59-4.85 2.65-10.78 2.65-5.93 0-10.67-2.65zm18.37-3.93q3.54-1.89 5.74-5.7 2.19-3.81 2.19-9.36 0-5.54-2.16-9.35-2.15-3.81-5.7-5.7-3.54-1.89-7.7-1.89-4.16 0-7.7 1.89-3.54 1.89-5.66 5.7-2.12 3.81-2.12 9.35 0 5.55 2.12 9.36 2.12 3.81 5.62 5.7 3.51 1.89 7.67 1.89 4.15 0 7.7-1.89z"/>
						<path id="&lt;Compound Path&gt;" class="s3" d="m3644.48 361.52q3.66-2.16 8.97-2.16v5.62h-1.46q-5.86 0-9.4 3.16-3.54 3.16-3.54 10.55v23.49h-5.39v-42.05h5.39v7.47q1.77-3.93 5.43-6.08z"/>
						<path id="&lt;Compound Path&gt;" class="s3" d="m3679.24 402.18l-17.33-18.87v18.87h-5.39v-56.99h5.39v33.73l16.95-18.79h7.54l-19.94 20.95 20.1 21.1z"/>
					</g>
					<g id="&lt;Group&gt;">
						<path id="&lt;Compound Path&gt;" fill-rule="evenodd" class="s3" d="m3336.02 413.78h2.45l5.41 14.25h-2.85l-1.32-3.55h-4.98l-1.3 3.55h-2.85zm3.19 8.75l-1.97-5.6-2.04 5.6z"/>
						<path id="&lt;Compound Path&gt;" class="s3" d="m3354.7 416.21h-4.56v11.82h-2.74v-11.82h-4.56v-2.43h11.86z"/>
						<path id="&lt;Compound Path&gt;" fill-rule="evenodd" class="s3" d="m3356.46 428.03v-14.25h6.3q0.99 0 1.82 0.42 0.83 0.41 1.44 1.08 0.6 0.67 0.94 1.52 0.34 0.86 0.34 1.72 0 1.38-0.69 2.52-0.7 1.13-1.88 1.63l3.25 5.36h-3.11l-2.91-4.77h-2.73v4.77zm2.77-7.2h3.47q0.38 0 0.72-0.18 0.33-0.18 0.57-0.5 0.24-0.31 0.38-0.73 0.14-0.42 0.14-0.9 0-0.5-0.16-0.92-0.16-0.42-0.43-0.74-0.27-0.31-0.63-0.48-0.35-0.17-0.71-0.17h-3.35z"/>
						<path id="&lt;Compound Path&gt;" fill-rule="evenodd" class="s3" d="m3373.64 413.78h2.45l5.41 14.25h-2.84l-1.33-3.55h-4.97l-1.31 3.55h-2.85zm3.19 8.75l-1.96-5.6-2.05 5.6z"/>
						<path id="&lt;Compound Path&gt;" class="s3" d="m3386.78 430.58q0.24 0.14 0.74 0.26 0.51 0.12 1.05 0.12 0.52 0 0.82-0.15 0.3-0.15 0.3-0.51 0-0.36-0.29-0.51-0.29-0.15-0.75-0.15-0.42 0-0.89 0.09-0.48 0.09-0.72 0.15l0.89-1.77q-1.39-0.12-2.55-0.8-1.17-0.68-1.99-1.7-0.82-1.01-1.28-2.26-0.46-1.26-0.46-2.54 0-1.31 0.47-2.58 0.47-1.27 1.37-2.28 0.9-1 2.21-1.62 1.3-0.63 2.97-0.63 1.96 0 3.4 0.87 1.43 0.86 2.14 2.24l-2.13 1.47q-0.28-0.6-0.68-1.01-0.4-0.42-0.87-0.66-0.46-0.24-0.96-0.35-0.5-0.11-0.98-0.11-1.05 0-1.82 0.42-0.77 0.42-1.28 1.1-0.51 0.67-0.77 1.52-0.27 0.85-0.27 1.7 0 0.94 0.31 1.81 0.3 0.88 0.85 1.54 0.55 0.66 1.32 1.06 0.78 0.4 1.7 0.4 0.48 0 1-0.12 0.52-0.12 0.99-0.38 0.48-0.26 0.88-0.67 0.4-0.41 0.64-0.99l2.27 1.3q-0.3 0.74-0.88 1.32-0.57 0.59-1.28 1.01-0.71 0.42-1.53 0.66-0.83 0.24-1.63 0.3l-0.48 0.74q0.14-0.04 0.31-0.06 0.17-0.02 0.33-0.02 0.7 0 1.2 0.33 0.51 0.34 0.51 1.08 0 0.76-0.64 1.26-0.63 0.5-1.93 0.5-0.66 0-1.21-0.12-0.54-0.12-0.94-0.28z"/>
						<path id="&lt;Compound Path&gt;" fill-rule="evenodd" class="s3" d="m3400.13 413.78h2.44l5.42 14.25h-2.85l-1.32-3.55h-4.98l-1.3 3.55h-2.85zm2.49-1.54q-0.47 0-0.81-0.15-0.34-0.13-0.63-0.31-0.29-0.17-0.58-0.31-0.29-0.14-0.61-0.14-0.34 0-0.53 0.14-0.2 0.14-0.3 0.32-0.1 0.18-0.12 0.33-0.02 0.16-0.02 0.18h-1.48q0-0.18 0.12-0.62 0.12-0.43 0.39-0.86 0.27-0.43 0.72-0.76 0.45-0.33 1.12-0.33 0.46 0 0.79 0.15 0.33 0.15 0.62 0.32 0.29 0.17 0.58 0.32 0.29 0.15 0.66 0.15 0.36 0 0.57-0.14 0.21-0.14 0.32-0.32 0.11-0.18 0.14-0.34 0.03-0.16 0.03-0.2h1.48q0 0.14-0.12 0.56-0.12 0.42-0.41 0.86-0.29 0.44-0.76 0.79-0.47 0.36-1.17 0.36zm0.7 10.29l-1.97-5.6-2.05 5.6z"/>
						<path id="&lt;Compound Path&gt;" fill-rule="evenodd" class="s3" d="m3415.11 428.13q-1.56 0-2.84-0.61-1.27-0.61-2.18-1.63-0.92-1.01-1.42-2.31-0.5-1.31-0.5-2.67 0-1.43 0.53-2.73 0.53-1.31 1.47-2.31 0.93-1 2.21-1.59 1.29-0.6 2.79-0.6 1.55 0 2.82 0.64 1.28 0.63 2.18 1.65 0.9 1.02 1.4 2.33 0.51 1.3 0.51 2.65 0 1.42-0.53 2.72-0.52 1.29-1.44 2.28-0.92 1-2.21 1.59-1.28 0.59-2.79 0.59zm-4.13-7.22q0 0.92 0.28 1.78 0.28 0.87 0.81 1.53 0.54 0.66 1.31 1.06 0.77 0.4 1.75 0.4 1.01 0 1.78-0.41 0.77-0.41 1.3-1.09 0.54-0.68 0.81-1.54 0.27-0.85 0.27-1.73 0-0.93-0.29-1.79-0.29-0.86-0.83-1.52-0.53-0.67-1.3-1.06-0.77-0.39-1.74-0.39-1 0-1.78 0.41-0.78 0.41-1.31 1.09-0.52 0.67-0.79 1.52-0.27 0.85-0.27 1.74z"/>
						<path id="&lt;Compound Path&gt;" class="s3" d="m3438.91 425.6v2.43h-9.89v-14.25h9.71v2.43h-6.94v3.43h6v2.25h-6v3.71z"/>
						<path id="&lt;Compound Path&gt;" fill-rule="evenodd" class="s3" d="m3445.89 428.03v-14.25h6.3q0.99 0 1.82 0.42 0.83 0.41 1.43 1.08 0.61 0.67 0.95 1.52 0.34 0.86 0.34 1.72 0 1.38-0.69 2.52-0.7 1.13-1.88 1.63l3.25 5.36h-3.11l-2.91-4.77h-2.73v4.77zm2.77-7.2h3.47q0.38 0 0.71-0.18 0.34-0.18 0.58-0.5 0.24-0.31 0.38-0.73 0.14-0.42 0.14-0.9 0-0.5-0.16-0.92-0.16-0.42-0.43-0.74-0.27-0.31-0.63-0.48-0.35-0.17-0.71-0.17h-3.35z"/>
						<path id="&lt;Compound Path&gt;" class="s3" d="m3469.13 425.6v2.43h-9.89v-14.25h9.71v2.43h-6.95v3.43h6v2.25h-6v3.71z"/>
						<path id="&lt;Compound Path&gt;" class="s3" d="m3481.95 416.21h-4.56v11.82h-2.74v-11.82h-4.56v-2.43h11.86z"/>
						<path id="&lt;Compound Path&gt;" class="s3" d="m3493.61 425.6v2.43h-9.9v-14.25h9.72v2.43h-6.95v3.43h6v2.25h-6v3.71z"/>
						<path id="&lt;Compound Path&gt;" class="s3" d="m3498.54 418.9v9.13h-2.77v-14.25h2.15l7.42 9.35v-9.33h2.77v14.23h-2.24z"/>
						<path id="&lt;Compound Path&gt;" class="s3" d="m3515.32 430.58q0.24 0.14 0.74 0.26 0.5 0.12 1.04 0.12 0.52 0 0.82-0.15 0.31-0.15 0.31-0.51 0-0.36-0.3-0.51-0.29-0.15-0.75-0.15-0.42 0-0.89 0.09-0.47 0.09-0.71 0.15l0.88-1.77q-1.39-0.12-2.55-0.8-1.16-0.68-1.99-1.7-0.82-1.01-1.28-2.26-0.46-1.26-0.46-2.54 0-1.31 0.47-2.58 0.47-1.27 1.38-2.28 0.9-1 2.2-1.62 1.31-0.63 2.97-0.63 1.97 0 3.4 0.87 1.44 0.86 2.14 2.24l-2.13 1.47q-0.28-0.6-0.68-1.01-0.4-0.42-0.86-0.66-0.46-0.24-0.97-0.35-0.5-0.11-0.98-0.11-1.04 0-1.81 0.42-0.78 0.42-1.29 1.1-0.51 0.67-0.77 1.52-0.26 0.85-0.26 1.7 0 0.94 0.3 1.81 0.3 0.88 0.85 1.54 0.55 0.66 1.33 1.06 0.77 0.4 1.69 0.4 0.48 0 1.01-0.12 0.52-0.12 0.99-0.38 0.47-0.26 0.87-0.67 0.4-0.41 0.64-0.99l2.27 1.3q-0.3 0.74-0.87 1.32-0.57 0.59-1.29 1.01-0.71 0.42-1.53 0.66-0.82 0.24-1.63 0.3l-0.48 0.74q0.14-0.04 0.31-0.06 0.17-0.02 0.33-0.02 0.71 0 1.21 0.33 0.5 0.34 0.5 1.08 0 0.76-0.63 1.26-0.63 0.5-1.94 0.5-0.66 0-1.2-0.12-0.54-0.12-0.95-0.28z"/>
						<path id="&lt;Compound Path&gt;" fill-rule="evenodd" class="s3" d="m3528.66 413.78h2.45l5.41 14.25h-2.85l-1.32-3.55h-4.98l-1.3 3.55h-2.85zm2.49-1.54q-0.46 0-0.8-0.15-0.35-0.13-0.64-0.31-0.29-0.17-0.58-0.31-0.29-0.14-0.61-0.14-0.34 0-0.53 0.14-0.19 0.14-0.29 0.32-0.1 0.18-0.12 0.33-0.02 0.16-0.02 0.18h-1.49q0-0.18 0.12-0.62 0.12-0.43 0.39-0.86 0.28-0.43 0.73-0.76 0.45-0.33 1.11-0.33 0.46 0 0.79 0.15 0.33 0.15 0.63 0.32 0.29 0.17 0.58 0.32 0.29 0.15 0.65 0.15 0.36 0 0.57-0.14 0.21-0.14 0.32-0.32 0.11-0.18 0.14-0.34 0.03-0.16 0.03-0.2h1.49q0 0.14-0.12 0.56-0.12 0.42-0.41 0.86-0.3 0.44-0.77 0.79-0.47 0.36-1.17 0.36zm0.7 10.29l-1.97-5.6-2.04 5.6z"/>
						<path id="&lt;Compound Path&gt;" fill-rule="evenodd" class="s3" d="m3543.65 428.13q-1.57 0-2.84-0.61-1.28-0.61-2.19-1.63-0.91-1.01-1.41-2.31-0.5-1.31-0.5-2.67 0-1.43 0.53-2.73 0.53-1.31 1.46-2.31 0.93-1 2.22-1.59 1.28-0.6 2.79-0.6 1.54 0 2.82 0.64 1.27 0.63 2.17 1.65 0.91 1.02 1.41 2.33 0.5 1.3 0.5 2.65 0 1.42-0.52 2.72-0.52 1.29-1.45 2.28-0.92 1-2.2 1.59-1.29 0.59-2.79 0.59zm-4.14-7.22q0 0.92 0.29 1.78 0.28 0.87 0.81 1.53 0.53 0.66 1.3 1.06 0.77 0.4 1.76 0.4 1 0 1.77-0.41 0.78-0.41 1.31-1.09 0.53-0.68 0.8-1.54 0.27-0.85 0.27-1.73 0-0.93-0.29-1.79-0.29-0.86-0.82-1.52-0.53-0.67-1.31-1.06-0.77-0.39-1.73-0.39-1.01 0-1.79 0.41-0.78 0.41-1.3 1.09-0.52 0.67-0.79 1.52-0.28 0.85-0.28 1.74z"/>
						<path id="&lt;Compound Path&gt;" fill-rule="evenodd" class="s3" d="m3557.55 428.03v-14.25h5.18q1.74 0 3.06 0.57 1.31 0.56 2.2 1.52 0.88 0.96 1.32 2.26 0.44 1.29 0.44 2.76 0 1.62-0.49 2.94-0.49 1.31-1.41 2.24-0.93 0.94-2.22 1.45-1.3 0.51-2.9 0.51zm9.41-7.14q0-1.03-0.28-1.89-0.28-0.86-0.82-1.48-0.55-0.63-1.34-0.97-0.79-0.34-1.79-0.34h-2.41v9.39h2.41q1.02 0 1.81-0.36 0.79-0.36 1.33-0.99 0.53-0.63 0.81-1.5 0.28-0.86 0.28-1.86z"/>
						<path id="&lt;Compound Path&gt;" class="s3" d="m3581.81 425.6v2.43h-9.89v-14.25h9.71v2.43h-6.94v3.43h6v2.25h-6v3.71z"/>
						<path id="&lt;Compound Path&gt;" class="s3" d="m3598.88 416.21h-4.55v11.82h-2.75v-11.82h-4.55v-2.43h11.85z"/>
						<path id="&lt;Compound Path&gt;" fill-rule="evenodd" class="s3" d="m3603.3 413.78h2.45l5.41 14.25h-2.84l-1.33-3.55h-4.97l-1.31 3.55h-2.85zm3.19 8.75l-1.96-5.6-2.05 5.6z"/>
						<path id="&lt;Compound Path&gt;" class="s3" d="m3612.73 428.03v-14.25h2.77v11.82h7.26v2.43z"/>
						<path id="&lt;Compound Path&gt;" class="s3" d="m3634.34 425.6v2.43h-9.89v-14.25h9.71v2.43h-6.94v3.43h6v2.25h-6v3.71z"/>
						<path id="&lt;Compound Path&gt;" class="s3" d="m3639.28 418.9v9.13h-2.77v-14.25h2.14l7.43 9.35v-9.33h2.77v14.23h-2.25z"/>
						<path id="&lt;Compound Path&gt;" class="s3" d="m3662.47 416.21h-4.55v11.82h-2.75v-11.82h-4.56v-2.43h11.86z"/>
						<path id="&lt;Compound Path&gt;" fill-rule="evenodd" class="s3" d="m3669.65 428.13q-1.56 0-2.84-0.61-1.27-0.61-2.18-1.63-0.92-1.01-1.42-2.31-0.5-1.31-0.5-2.67 0-1.43 0.53-2.73 0.53-1.31 1.47-2.31 0.93-1 2.21-1.59 1.29-0.6 2.79-0.6 1.55 0 2.82 0.64 1.28 0.63 2.18 1.65 0.9 1.02 1.4 2.33 0.51 1.3 0.51 2.65 0 1.42-0.53 2.72-0.52 1.29-1.44 2.28-0.92 1-2.21 1.59-1.28 0.59-2.79 0.59zm-4.13-7.22q0 0.92 0.28 1.78 0.28 0.87 0.81 1.53 0.54 0.66 1.31 1.06 0.77 0.4 1.75 0.4 1.01 0 1.78-0.41 0.77-0.41 1.3-1.09 0.53-0.68 0.81-1.54 0.27-0.85 0.27-1.73 0-0.93-0.29-1.79-0.3-0.86-0.83-1.52-0.53-0.67-1.3-1.06-0.77-0.39-1.74-0.39-1 0-1.78 0.41-0.79 0.41-1.31 1.09-0.52 0.67-0.79 1.52-0.27 0.85-0.27 1.74z"/>
						<path id="&lt;Compound Path&gt;" class="s3" d="m3687.23 417.52q-0.14-0.14-0.51-0.38-0.37-0.25-0.9-0.48-0.54-0.23-1.16-0.39-0.62-0.16-1.26-0.16-1.15 0-1.71 0.42-0.56 0.42-0.56 1.19 0 0.44 0.21 0.73 0.21 0.29 0.61 0.51 0.4 0.22 1.02 0.4 0.61 0.18 1.41 0.38 1.04 0.28 1.9 0.61 0.85 0.32 1.44 0.8 0.59 0.48 0.91 1.15 0.33 0.67 0.33 1.66 0 1.14-0.44 1.95-0.43 0.82-1.16 1.32-0.73 0.5-1.69 0.73-0.95 0.23-1.99 0.23-1.61 0-3.17-0.48-1.57-0.48-2.81-1.37l1.22-2.38q0.18 0.18 0.65 0.47 0.48 0.29 1.12 0.58 0.64 0.29 1.42 0.49 0.79 0.2 1.61 0.2 2.29 0 2.29-1.46 0-0.46-0.26-0.78-0.27-0.33-0.75-0.57-0.48-0.24-1.16-0.44-0.68-0.2-1.53-0.44-1.02-0.28-1.77-0.61-0.75-0.33-1.26-0.78-0.5-0.46-0.75-1.05-0.25-0.59-0.25-1.41 0-1.09 0.4-1.93 0.4-0.84 1.12-1.4 0.71-0.56 1.65-0.86 0.94-0.29 2.03-0.29 1.5 0 2.77 0.48 1.26 0.47 2.2 1.11z"/>
					</g>
				</g>
			</g>
		</g>
	</g>
</svg>