<svg version="1.2" xmlns="http://www.w3.org/2000/svg" viewBox="3288 618 480 140">
	<style>
		tspan { white-space:pre } 
		 
		.s1 { fill: #2accd9 } 
		.s2 { fill: #7ce2e7 } 
		.s3 { fill: #1e9ba1 } 
	</style>
	<g id="Camada 2">
		<g id="&lt;Group&gt;">
			<g id="&lt;Group&gt;">
				<g id="&lt;Group&gt;">
					<path id="&lt;Path&gt;" class="s1" d="m3349.4 755.07c-35.11 12.78-73.94-5.32-86.72-40.43l5.2-1.89c2.55 7.02 6.24 13.29 10.77 18.7 16.31 19.44 43.63 27.62 68.86 18.43 32.24-11.73 48.87-47.39 37.13-79.63-2.43-6.7-5.91-12.73-10.17-17.96q-0.74-0.92-1.53-1.82-0.4-0.45-0.79-0.88-0.8-0.88-1.63-1.72c-6.64-6.72-14.71-11.81-23.51-14.94q-0.55-0.19-1.11-0.37c-6.27-2.11-12.9-3.21-19.64-3.21v-5.52c27.63 0 53.57 17.06 63.57 44.53 12.78 35.11-5.32 73.94-40.43 86.71z"/>
				</g>
				<g id="&lt;Group&gt;">
					<path id="&lt;Path&gt;" class="s2" d="m3347.51 749.88c-25.23 9.19-52.55 1.01-68.86-18.43l4.23-3.55c4.28 5.1 9.4 9.36 15.07 12.63 13.99 8.06 31.31 10.12 47.67 4.17 29.38-10.7 44.53-43.18 33.84-72.56-8.38-22.99-30.07-37.26-53.2-37.26v-5.53c6.74 0 13.37 1.1 19.64 3.21q0.56 0.18 1.11 0.37c8.8 3.13 16.87 8.22 23.51 14.94q0.83 0.84 1.63 1.72 0.39 0.43 0.79 0.88 0.79 0.9 1.53 1.82c4.26 5.23 7.74 11.26 10.17 17.96 11.74 32.24-4.89 67.9-37.13 79.63z"/>
				</g>
				<g id="&lt;Group&gt;">
					<path id="&lt;Path&gt;" class="s3" d="m3345.62 744.7c-16.36 5.95-33.68 3.89-47.67-4.17l2.77-4.78c12.62 7.27 28.25 9.13 43.01 3.75 26.51-9.64 40.19-38.96 30.53-65.47-7.54-20.75-27.13-33.63-48-33.63v-5.52c23.13 0 44.82 14.27 53.2 37.26 10.69 29.38-4.46 61.86-33.84 72.56z"/>
				</g>
				<g id="&lt;Group&gt;">
					<g id="&lt;Group&gt;">
						<path id="&lt;Compound Path&gt;" class="s1" d="m3331.59 733.28c-1.44-3.07-4-5.66-8.54-5.49-10.9 0.44-14.74 2.42-17.36-1.66-2.05-3.18-2.46-4.26-2.46-4.26 0.13 1.57-0.87 3.62 1.1 6.67 2.59 4.1 3.64 0.87 14.54 0.43 6.95-0.28 9.26 5.93 10 10.44q1.46-3.01 2.72-6.13zm-31.16-25c-2.66-1.18-4.82-0.87-1.56-5.41 2.18-3 8.23-12.2 7.49-16.05-0.72-3.85-9.8-25.92 12.87-38.56 2.41-1.36 5.02-2.52 7.74-3.44l-0.02-0.05c-4.23 1.08-8.26 2.64-11.9 4.69-22.67 12.64-13.59 34.72-12.87 38.57 0.74 3.84-5.59 12.84-7.46 16.05-1.9 3.18 5.71 4.2 5.71 4.2z"/>
					</g>
				</g>
				<g id="&lt;Group&gt;">
					<g id="&lt;Group&gt;">
						<path id="&lt;Compound Path&gt;" class="s2" d="m3343.69 728.46c-0.2-3.13-1.38-10.05-7.71-9.79-8.18 0.33-8.95 2.74-10.93-0.34-1.46-2.28-0.72-3.82-0.79-5 0 0 0.31 0.82 1.82 3.18 1.97 3.08 4.84 1.59 13.02 1.26 4.13-0.15 6.06 2.69 6.98 5.59-0.75 1.72-1.51 3.43-2.39 5.1zm-21.56-25.31c0 0-5.69-0.77-4.28-3.18 1.41-2.38 6.15-9.15 5.61-12.02-0.54-2.9-7.36-19.46 9.64-28.92 2.88-1.62 6.06-2.82 9.41-3.65-2.2 0.75-4.33 1.65-6.28 2.75-17 9.46-10.18 26.02-9.64 28.92 0.54 2.87-3.97 9.77-5.61 12.03-2.44 3.41-0.82 3.18 1.15 4.07z"/>
					</g>
				</g>
				<g id="&lt;Group&gt;">
					<g id="&lt;Group&gt;">
						<path id="&lt;Compound Path&gt;" class="s3" d="m3358.45 717.52c-0.17-2.25-1-7.2-5.55-7.01-5.85 0.23-6.4 1.96-7.8-0.24-1.06-1.64-0.52-2.75-0.59-3.58 0 0 0.22 0.57 1.31 2.28 1.42 2.2 3.48 1.13 9.33 0.9 2.94-0.12 4.34 1.92 4.98 3.98q-0.79 1.87-1.68 3.67zm-15.45-18.13c0 0-4.08-0.55-3.06-2.25 1.02-1.73 4.41-6.57 4-8.63-0.38-2.06-5.26-13.91 6.9-20.71 2.06-1.14 4.34-2 6.73-2.59-1.56 0.52-3.08 1.19-4.48 1.95-12.16 6.8-7.3 18.65-6.9 20.71 0.38 2.06-2.86 6.99-4.02 8.63-1.73 2.44-0.6 2.25 0.83 2.89z"/>
					</g>
				</g>
			</g>
			<g id="&lt;Group&gt;">
				<g id="&lt;Group&gt;">
					<path id="&lt;Compound Path&gt;" class="s3" d="m3459.04 677.03q-2.21-5.06-6.72-7.97-4.52-2.9-10.61-2.9-5.73 0-10.28 2.65-4.56 2.64-7.2 7.52-2.64 4.89-2.64 11.35 0 6.46 2.64 11.38 2.64 4.92 7.2 7.56 4.55 2.65 10.28 2.65 5.36 0 9.65-2.32 4.3-2.31 6.9-6.61 2.61-4.29 2.98-10.02h-21.59v-4.18h27.02v3.74q-0.37 6.76-3.67 12.23-3.3 5.47-8.85 8.63-5.54 3.15-12.44 3.15-7.13 0-12.93-3.34-5.8-3.34-9.14-9.32-3.34-5.99-3.34-13.55 0-7.56 3.34-13.55 3.34-5.98 9.14-9.32 5.8-3.35 12.93-3.35 8.22 0 14.39 4.12 6.17 4.11 8.96 11.45z"/>
					<path id="&lt;Compound Path&gt;" fill-rule="evenodd" class="s3" d="m3479.22 711.43q-4.52-2.53-7.12-7.19-2.61-4.67-2.61-10.91 0-6.24 2.64-10.9 2.65-4.66 7.2-7.2 4.55-2.53 10.2-2.53 5.66 0 10.25 2.53 4.59 2.54 7.19 7.2 2.61 4.66 2.61 10.9 0 6.17-2.64 10.87-2.65 4.7-7.27 7.23-4.63 2.54-10.28 2.54-5.66 0-10.17-2.54zm17.51-3.74q3.38-1.8 5.47-5.44 2.09-3.63 2.09-8.92 0-5.28-2.05-8.92-2.06-3.63-5.44-5.43-3.37-1.8-7.34-1.8-3.96 0-7.34 1.8-3.38 1.8-5.4 5.43-2.02 3.64-2.02 8.92 0 5.29 2.02 8.92 2.02 3.64 5.36 5.44 3.34 1.8 7.31 1.8 3.96 0 7.34-1.8z"/>
					<path id="&lt;Compound Path&gt;" fill-rule="evenodd" class="s3" d="m3522.13 711.43q-4.52-2.53-7.13-7.19-2.6-4.67-2.6-10.91 0-6.24 2.64-10.9 2.64-4.66 7.2-7.2 4.55-2.53 10.2-2.53 5.66 0 10.25 2.53 4.59 2.54 7.19 7.2 2.61 4.66 2.61 10.9 0 6.17-2.64 10.87-2.65 4.7-7.27 7.23-4.63 2.54-10.28 2.54-5.66 0-10.17-2.54zm17.51-3.74q3.38-1.8 5.47-5.44 2.09-3.63 2.09-8.92 0-5.28-2.05-8.92-2.06-3.63-5.44-5.43-3.37-1.8-7.34-1.8-3.97 0-7.34 1.8-3.38 1.8-5.4 5.43-2.02 3.64-2.02 8.92 0 5.29 2.02 8.92 2.02 3.64 5.36 5.44 3.34 1.8 7.31 1.8 3.96 0 7.34-1.8z"/>
					<path id="&lt;Compound Path&gt;" fill-rule="evenodd" class="s3" d="m3557.8 682.43q2.5-4.66 6.87-7.2 4.37-2.53 9.88-2.53 5.28 0 9.54 2.57 4.26 2.57 6.24 6.68v-22.91h5.14v54.34h-5.14v-8.96q-1.83 4.19-6.02 6.87-4.18 2.68-9.84 2.68-5.51 0-9.87-2.57-4.37-2.57-6.83-7.27-2.46-4.7-2.46-10.87 0-6.17 2.49-10.83zm30.55 2.38q-1.98-3.67-5.4-5.65-3.41-1.98-7.52-1.98-4.26 0-7.64 1.91-3.38 1.91-5.32 5.54-1.95 3.64-1.95 8.63 0 4.92 1.95 8.63 1.94 3.71 5.32 5.65 3.38 1.95 7.64 1.95 4.11 0 7.52-1.99 3.42-1.98 5.4-5.65 1.98-3.67 1.98-8.52 0-4.84-1.98-8.52z"/>
					<path id="&lt;Compound Path&gt;" class="s3" d="m3665.8 662.05l-14.54 51.33h-5.72l-12.93-43.77-13.21 43.77-5.58 0.07-14.25-51.4h5.51l11.75 45.01 13.14-45.01h5.73l12.77 45.01 11.83-45.01z"/>
					<path id="&lt;Compound Path&gt;" fill-rule="evenodd" class="s3" d="m3670.79 711.43q-4.52-2.53-7.13-7.19-2.6-4.67-2.6-10.91 0-6.24 2.64-10.9 2.64-4.66 7.2-7.2 4.55-2.53 10.2-2.53 5.66 0 10.25 2.53 4.58 2.54 7.19 7.2 2.61 4.66 2.61 10.9 0 6.17-2.64 10.87-2.65 4.7-7.27 7.23-4.63 2.54-10.28 2.54-5.66 0-10.17-2.54zm17.51-3.74q3.38-1.8 5.47-5.44 2.09-3.63 2.09-8.92 0-5.28-2.05-8.92-2.06-3.63-5.44-5.43-3.38-1.8-7.34-1.8-3.97 0-7.34 1.8-3.38 1.8-5.4 5.43-2.02 3.64-2.02 8.92 0 5.29 2.02 8.92 2.02 3.64 5.36 5.44 3.34 1.8 7.31 1.8 3.96 0 7.34-1.8z"/>
					<path id="&lt;Compound Path&gt;" class="s3" d="m3714.44 674.61q3.49-2.06 8.56-2.06v5.36h-1.4q-5.58 0-8.96 3.01-3.37 3.01-3.37 10.06v22.4h-5.14v-40.09h5.14v7.12q1.68-3.75 5.17-5.8z"/>
					<path id="&lt;Compound Path&gt;" class="s3" d="m3747.59 713.38l-16.52-17.99v17.99h-5.14v-54.34h5.14v32.16l16.15-17.91h7.2l-19.02 19.97 19.17 20.12z"/>
				</g>
				<g id="&lt;Group&gt;">
					<path id="&lt;Compound Path&gt;" fill-rule="evenodd" class="s3" d="m3420.34 724.44h2.33l5.17 13.59h-2.72l-1.26-3.39h-4.75l-1.24 3.39h-2.72zm3.05 8.34l-1.88-5.34-1.95 5.34z"/>
					<path id="&lt;Compound Path&gt;" class="s3" d="m3438.15 726.76h-4.34v11.27h-2.62v-11.27h-4.35v-2.32h11.31z"/>
					<path id="&lt;Compound Path&gt;" fill-rule="evenodd" class="s3" d="m3439.83 738.03v-13.59h6.01q0.94 0 1.73 0.4 0.8 0.39 1.37 1.03 0.57 0.64 0.9 1.45 0.32 0.82 0.32 1.64 0 1.32-0.66 2.4-0.66 1.08-1.78 1.56l3.09 5.11h-2.96l-2.78-4.56h-2.6v4.56zm2.64-6.87h3.31q0.37 0 0.68-0.17 0.32-0.18 0.55-0.47 0.23-0.3 0.36-0.7 0.13-0.4 0.13-0.86 0-0.48-0.15-0.88-0.15-0.4-0.41-0.7-0.26-0.3-0.59-0.46-0.34-0.16-0.68-0.16h-3.2z"/>
					<path id="&lt;Compound Path&gt;" fill-rule="evenodd" class="s3" d="m3456.21 724.44h2.33l5.17 13.59h-2.72l-1.26-3.39h-4.74l-1.25 3.39h-2.72zm3.05 8.34l-1.88-5.34-1.95 5.34z"/>
					<path id="&lt;Compound Path&gt;" class="s3" d="m3468.74 740.46q0.23 0.13 0.71 0.25 0.48 0.11 0.99 0.11 0.5 0 0.79-0.14 0.28-0.15 0.28-0.49 0-0.35-0.27-0.49-0.28-0.14-0.72-0.14-0.4 0-0.85 0.08-0.45 0.09-0.68 0.15l0.84-1.69q-1.32-0.11-2.43-0.76-1.11-0.65-1.89-1.62-0.79-0.96-1.23-2.16-0.44-1.2-0.44-2.42 0-1.24 0.45-2.46 0.45-1.21 1.31-2.17 0.86-0.96 2.11-1.55 1.24-0.59 2.83-0.59 1.87 0 3.24 0.82 1.37 0.82 2.04 2.14l-2.03 1.4q-0.27-0.57-0.65-0.97-0.38-0.39-0.82-0.62-0.44-0.23-0.92-0.33-0.48-0.11-0.94-0.11-0.99 0-1.73 0.4-0.74 0.4-1.22 1.05-0.49 0.64-0.74 1.45-0.25 0.81-0.25 1.62 0 0.9 0.29 1.73 0.28 0.83 0.81 1.46 0.53 0.63 1.26 1.02 0.74 0.38 1.62 0.38 0.46 0 0.96-0.12 0.49-0.11 0.94-0.36 0.45-0.25 0.84-0.64 0.38-0.39 0.61-0.95l2.16 1.25q-0.29 0.7-0.83 1.26-0.55 0.55-1.23 0.95-0.68 0.41-1.46 0.64-0.78 0.22-1.55 0.28l-0.46 0.71q0.13-0.04 0.3-0.06 0.16-0.02 0.31-0.02 0.67 0 1.15 0.32 0.48 0.32 0.48 1.02 0 0.73-0.6 1.21-0.61 0.48-1.85 0.48-0.63 0-1.15-0.12-0.51-0.11-0.9-0.27z"/>
					<path id="&lt;Compound Path&gt;" fill-rule="evenodd" class="s3" d="m3481.46 724.44h2.34l5.16 13.59h-2.72l-1.26-3.39h-4.74l-1.25 3.39h-2.71zm2.37-1.48q-0.44 0-0.77-0.13-0.32-0.13-0.6-0.3-0.28-0.16-0.55-0.29-0.28-0.14-0.59-0.14-0.32 0-0.5 0.14-0.19 0.13-0.28 0.3-0.1 0.18-0.12 0.32-0.01 0.14-0.01 0.16h-1.42q0-0.17 0.11-0.58 0.12-0.41 0.38-0.82 0.26-0.42 0.69-0.73 0.43-0.32 1.06-0.32 0.44 0 0.75 0.15 0.32 0.14 0.6 0.3 0.27 0.16 0.55 0.31 0.28 0.14 0.62 0.14 0.35 0 0.55-0.13 0.2-0.14 0.3-0.31 0.11-0.17 0.14-0.32 0.03-0.16 0.03-0.19h1.41q0 0.13-0.11 0.53-0.12 0.4-0.39 0.82-0.28 0.42-0.73 0.76-0.45 0.33-1.12 0.33zm0.67 9.82l-1.88-5.34-1.95 5.34z"/>
					<path id="&lt;Compound Path&gt;" fill-rule="evenodd" class="s3" d="m3495.75 738.12q-1.49 0-2.7-0.58-1.22-0.58-2.09-1.55-0.87-0.97-1.35-2.21-0.48-1.24-0.48-2.54 0-1.36 0.51-2.61 0.51-1.24 1.4-2.2 0.89-0.95 2.11-1.52 1.23-0.56 2.66-0.56 1.47 0 2.69 0.6 1.21 0.6 2.07 1.58 0.86 0.98 1.34 2.22 0.48 1.24 0.48 2.52 0 1.36-0.5 2.6-0.49 1.23-1.37 2.18-0.88 0.94-2.11 1.51-1.22 0.56-2.66 0.56zm-3.94-6.88q0 0.88 0.27 1.7 0.27 0.82 0.77 1.45 0.51 0.63 1.25 1.02 0.73 0.38 1.67 0.38 0.96 0 1.7-0.39 0.73-0.4 1.24-1.05 0.51-0.65 0.76-1.46 0.26-0.81 0.26-1.65 0-0.88-0.28-1.71-0.27-0.82-0.78-1.45-0.51-0.63-1.24-1.01-0.74-0.37-1.66-0.37-0.95 0-1.7 0.39-0.75 0.4-1.24 1.04-0.5 0.64-0.76 1.45-0.26 0.81-0.26 1.66z"/>
					<path id="&lt;Compound Path&gt;" class="s3" d="m3518.44 735.71v2.32h-9.43v-13.59h9.26v2.32h-6.62v3.27h5.72v2.14h-5.72v3.54z"/>
					<path id="&lt;Compound Path&gt;" fill-rule="evenodd" class="s3" d="m3525.1 738.03v-13.59h6.01q0.93 0 1.73 0.4 0.79 0.39 1.37 1.03 0.57 0.64 0.9 1.45 0.32 0.82 0.32 1.64 0 1.32-0.66 2.4-0.66 1.08-1.79 1.56l3.1 5.11h-2.96l-2.78-4.56h-2.6v4.56zm2.64-6.87h3.31q0.36 0 0.68-0.17 0.31-0.18 0.54-0.47 0.23-0.3 0.37-0.7 0.13-0.4 0.13-0.86 0-0.48-0.15-0.88-0.15-0.4-0.41-0.7-0.26-0.3-0.6-0.46-0.33-0.16-0.67-0.16h-3.2z"/>
					<path id="&lt;Compound Path&gt;" class="s3" d="m3547.25 735.71v2.32h-9.43v-13.59h9.26v2.32h-6.62v3.27h5.72v2.14h-5.72v3.54z"/>
					<path id="&lt;Compound Path&gt;" class="s3" d="m3559.48 726.76h-4.34v11.27h-2.63v-11.27h-4.34v-2.32h11.31z"/>
					<path id="&lt;Compound Path&gt;" class="s3" d="m3570.59 735.71v2.32h-9.43v-13.59h9.26v2.32h-6.62v3.27h5.72v2.14h-5.72v3.54z"/>
					<path id="&lt;Compound Path&gt;" class="s3" d="m3575.3 729.32v8.71h-2.64v-13.59h2.05l7.07 8.92v-8.9h2.64v13.57h-2.14z"/>
					<path id="&lt;Compound Path&gt;" class="s3" d="m3591.29 740.46q0.23 0.13 0.71 0.25 0.48 0.11 1 0.11 0.49 0 0.78-0.14 0.29-0.15 0.29-0.49 0-0.35-0.28-0.49-0.28-0.14-0.72-0.14-0.4 0-0.85 0.08-0.45 0.09-0.68 0.15l0.84-1.69q-1.32-0.11-2.43-0.76-1.11-0.65-1.89-1.62-0.79-0.96-1.23-2.16-0.44-1.2-0.44-2.42 0-1.24 0.45-2.46 0.45-1.21 1.31-2.17 0.87-0.96 2.11-1.55 1.24-0.59 2.83-0.59 1.87 0 3.24 0.82 1.37 0.82 2.04 2.14l-2.03 1.4q-0.27-0.57-0.65-0.97-0.38-0.39-0.82-0.62-0.44-0.23-0.92-0.33-0.48-0.11-0.94-0.11-0.99 0-1.73 0.4-0.73 0.4-1.22 1.05-0.49 0.64-0.74 1.45-0.25 0.81-0.25 1.62 0 0.9 0.29 1.73 0.29 0.83 0.81 1.46 0.53 0.63 1.27 1.02 0.73 0.38 1.61 0.38 0.46 0 0.96-0.12 0.5-0.11 0.95-0.36 0.44-0.25 0.83-0.64 0.38-0.39 0.61-0.95l2.16 1.25q-0.29 0.7-0.83 1.26-0.55 0.55-1.22 0.95-0.68 0.41-1.47 0.64-0.78 0.22-1.55 0.28l-0.46 0.71q0.14-0.04 0.3-0.06 0.16-0.02 0.32-0.02 0.67 0 1.14 0.32 0.48 0.32 0.48 1.02 0 0.73-0.6 1.21-0.6 0.48-1.85 0.48-0.63 0-1.14-0.12-0.52-0.11-0.9-0.27z"/>
					<path id="&lt;Compound Path&gt;" fill-rule="evenodd" class="s3" d="m3604.01 724.44h2.34l5.16 13.59h-2.71l-1.27-3.39h-4.74l-1.24 3.39h-2.72zm2.37-1.48q-0.44 0-0.76-0.13-0.33-0.13-0.61-0.3-0.27-0.16-0.55-0.29-0.28-0.14-0.58-0.14-0.33 0-0.51 0.14-0.18 0.13-0.28 0.3-0.09 0.18-0.11 0.32-0.02 0.14-0.02 0.16h-1.42q0-0.17 0.12-0.58 0.11-0.41 0.37-0.82 0.26-0.42 0.69-0.73 0.43-0.32 1.06-0.32 0.44 0 0.76 0.15 0.31 0.14 0.59 0.3 0.28 0.16 0.55 0.31 0.28 0.14 0.63 0.14 0.34 0 0.54-0.13 0.2-0.14 0.31-0.31 0.1-0.17 0.13-0.32 0.03-0.16 0.03-0.19h1.41q0 0.13-0.11 0.53-0.11 0.4-0.39 0.82-0.28 0.42-0.73 0.76-0.45 0.33-1.12 0.33zm0.67 9.82l-1.87-5.34-1.95 5.34z"/>
					<path id="&lt;Compound Path&gt;" fill-rule="evenodd" class="s3" d="m3618.31 738.12q-1.5 0-2.71-0.58-1.22-0.58-2.09-1.55-0.87-0.97-1.35-2.21-0.47-1.24-0.47-2.54 0-1.36 0.5-2.61 0.51-1.24 1.4-2.2 0.89-0.95 2.11-1.52 1.23-0.56 2.66-0.56 1.48 0 2.69 0.6 1.22 0.6 2.08 1.58 0.86 0.98 1.34 2.22 0.47 1.24 0.47 2.52 0 1.36-0.49 2.6-0.5 1.23-1.38 2.18-0.88 0.94-2.1 1.51-1.23 0.56-2.66 0.56zm-3.95-6.88q0 0.88 0.27 1.7 0.27 0.82 0.78 1.45 0.5 0.63 1.24 1.02 0.74 0.38 1.67 0.38 0.96 0 1.7-0.39 0.73-0.4 1.24-1.05 0.51-0.65 0.77-1.46 0.25-0.81 0.25-1.65 0-0.88-0.27-1.71-0.28-0.82-0.79-1.45-0.5-0.63-1.24-1.01-0.74-0.37-1.66-0.37-0.95 0-1.7 0.39-0.74 0.4-1.24 1.04-0.5 0.64-0.76 1.45-0.26 0.81-0.26 1.66z"/>
					<path id="&lt;Compound Path&gt;" fill-rule="evenodd" class="s3" d="m3631.56 738.03v-13.59h4.94q1.66 0 2.92 0.54 1.25 0.54 2.09 1.45 0.84 0.92 1.26 2.16 0.43 1.23 0.43 2.63-0.01 1.55-0.47 2.8-0.47 1.25-1.35 2.14-0.88 0.89-2.12 1.38-1.23 0.49-2.76 0.49zm8.97-6.81q0-0.98-0.27-1.8-0.26-0.82-0.78-1.42-0.52-0.59-1.27-0.92-0.76-0.32-1.72-0.32h-2.29v8.95h2.29q0.98 0 1.74-0.34 0.75-0.35 1.26-0.95 0.51-0.6 0.77-1.42 0.27-0.83 0.27-1.78z"/>
					<path id="&lt;Compound Path&gt;" class="s3" d="m3654.69 735.71v2.32h-9.43v-13.59h9.26v2.32h-6.62v3.27h5.72v2.14h-5.72v3.54z"/>
					<path id="&lt;Compound Path&gt;" class="s3" d="m3670.97 726.76h-4.34v11.27h-2.62v-11.27h-4.34v-2.32h11.3z"/>
					<path id="&lt;Compound Path&gt;" fill-rule="evenodd" class="s3" d="m3675.18 724.44h2.34l5.16 13.59h-2.72l-1.26-3.39h-4.74l-1.25 3.39h-2.71zm3.04 8.34l-1.88-5.34-1.95 5.34z"/>
					<path id="&lt;Compound Path&gt;" class="s3" d="m3684.17 738.03v-13.59h2.64v11.27h6.93v2.32z"/>
					<path id="&lt;Compound Path&gt;" class="s3" d="m3704.78 735.71v2.32h-9.43v-13.59h9.25v2.32h-6.61v3.27h5.72v2.14h-5.72v3.54z"/>
					<path id="&lt;Compound Path&gt;" class="s3" d="m3709.48 729.32v8.71h-2.64v-13.59h2.05l7.08 8.92v-8.9h2.64v13.57h-2.14z"/>
					<path id="&lt;Compound Path&gt;" class="s3" d="m3731.6 726.76h-4.34v11.27h-2.63v-11.27h-4.34v-2.32h11.31z"/>
					<path id="&lt;Compound Path&gt;" fill-rule="evenodd" class="s3" d="m3738.45 738.12q-1.49 0-2.71-0.58-1.21-0.58-2.09-1.55-0.87-0.97-1.34-2.21-0.48-1.24-0.48-2.54 0-1.36 0.5-2.61 0.51-1.24 1.4-2.2 0.89-0.95 2.12-1.52 1.22-0.56 2.65-0.56 1.48 0 2.69 0.6 1.22 0.6 2.08 1.58 0.86 0.98 1.34 2.22 0.48 1.24 0.48 2.52 0 1.36-0.5 2.6-0.5 1.23-1.38 2.18-0.88 0.94-2.1 1.51-1.23 0.56-2.66 0.56zm-3.94-6.88q0 0.88 0.26 1.7 0.27 0.82 0.78 1.45 0.51 0.63 1.24 1.02 0.74 0.38 1.68 0.38 0.95 0 1.69-0.39 0.74-0.4 1.24-1.05 0.51-0.65 0.77-1.46 0.26-0.81 0.26-1.65 0-0.88-0.28-1.71-0.28-0.82-0.79-1.45-0.5-0.63-1.24-1.01-0.74-0.37-1.65-0.37-0.96 0-1.71 0.39-0.74 0.4-1.24 1.04-0.5 0.64-0.76 1.45-0.25 0.81-0.25 1.66z"/>
					<path id="&lt;Compound Path&gt;" class="s3" d="m3755.21 728q-0.14-0.13-0.49-0.36-0.36-0.23-0.86-0.45-0.51-0.22-1.1-0.37-0.6-0.16-1.21-0.16-1.09 0-1.62 0.4-0.54 0.41-0.54 1.13 0 0.42 0.2 0.7 0.2 0.28 0.58 0.49 0.39 0.21 0.97 0.38 0.58 0.17 1.35 0.37 0.99 0.26 1.81 0.57 0.81 0.31 1.37 0.77 0.57 0.45 0.87 1.09 0.31 0.65 0.31 1.58 0 1.09-0.41 1.87-0.41 0.77-1.11 1.25-0.7 0.48-1.61 0.7-0.91 0.22-1.9 0.22-1.53 0-3.02-0.46-1.5-0.46-2.68-1.3l1.17-2.28q0.17 0.18 0.62 0.45 0.45 0.28 1.06 0.56 0.61 0.28 1.36 0.47 0.74 0.19 1.53 0.19 2.18 0 2.18-1.4 0-0.44-0.25-0.74-0.25-0.31-0.71-0.54-0.46-0.23-1.11-0.42-0.65-0.19-1.45-0.42-0.98-0.27-1.69-0.59-0.72-0.31-1.2-0.74-0.48-0.43-0.72-1-0.24-0.56-0.24-1.35 0-1.03 0.39-1.83 0.38-0.81 1.06-1.34 0.68-0.54 1.58-0.81 0.9-0.28 1.93-0.28 1.43 0 2.64 0.45 1.2 0.45 2.1 1.06z"/>
				</g>
			</g>
		</g>
	</g>
</svg>